#!OML:ASF H:\Terrain\Patient Classification 1\Walking\steve\steve.ASF
:FULLY-SPECIFIED
:DEGREES
78
root 8.85162 15.2977 -20.0333 6.66695 2.462 6.23064
lowerback 0.203015 -1.01499 -7.36781
upperback -3.19787 -1.49663 0.381842
thorax -3.23815 -0.536009 4.57103
lowerneck -10.2625 -0.806522 -4.18969
upperneck 8.81437 -0.469109 0.0475076
head 4.32799 -0.370375 0.661391
rclavicle -1.07142e-014 0
rhumerus -89.996 -26.0641 -15.0152
rradius 14.2764
rwrist 36.8624
rhand -12.1537 -37.8135
rfingers 7.12502
rthumb 13.9089 -67.3283
lclavicle -1.07142e-014 0
lhumerus 4.7445 -4.63905 80.2611
lradius 45.3163
lwrist 30.5332
lhand -27.152 -17.8268
lfingers 7.12502
lthumb -0.566862 12.1522
rfemur -45.0419 -1.29051 19.3958
rtibia 30.5894
rfoot -4.79739 2.6079
rtoes 3.92915
lfemur 24.62 -0.192646 -27.8369
ltibia -2.22639e-014
lfoot 5.13421 -5.18044
ltoes 9.75658
79
root 8.85271 15.3269 -19.7741 6.70214 2.45938 5.64292
lowerback 0.278949 -0.947639 -6.47226
upperback -3.41165 -1.39461 0.609268
thorax -3.52567 -0.491325 4.30637
lowerneck -9.95175 -0.825572 -4.23459
upperneck 8.64444 -0.468117 -0.305527
head 4.22458 -0.389044 0.560852
rclavicle 2.13538e-014 -1.59028e-015
rhumerus -90.61 -25.9418 -13.6659
rradius 14.2064
rwrist 38.4196
rhand -12.4588 -38.0504
rfingers 7.12502
rthumb 13.6148 -67.5852
lclavicle 2.13538e-014 -1.59028e-015
lhumerus 3.51535 -4.55185 80.5413
lradius 46.3526
lwrist 30.7716
lhand -27.209 -17.781
lfingers 7.12502
lthumb -0.621923 12.1979
rfemur -44.9101 -0.654356 19.594
rtibia 32.0352
rfoot -4.427 1.42342
rtoes 8.85488
lfemur 25.0909 -0.22131 -27.0292
ltibia 4.13472e-014
lfoot 7.45897 -4.09715
ltoes 0.749574
80
root 8.86094 15.3394 -19.5235 6.70278 2.62092 4.90739
lowerback 0.418035 -0.997246 -5.30707
upperback -3.526 -1.43927 0.809072
thorax -3.73181 -0.536925 3.86444
lowerneck -10.1405 -0.743998 -3.92151
upperneck 8.80146 -0.327232 -0.908742
head 4.30034 -0.347223 0.333393
rclavicle -3.57812e-015 1.98785e-014
rhumerus -91.3326 -26.2099 -11.6735
rradius 13.9561
rwrist 41.0551
rhand -13.0354 -38.0491
rfingers 7.12502
rthumb 13.0591 -67.6203
lclavicle -3.57812e-015 1.98785e-014
lhumerus 2.2187 -4.29979 80.6308
lradius 47.5101
lwrist 30.882
lhand -27.117 -18.1949
lfingers 7.12502
lthumb -0.533134 11.7842
rfemur -44.7416 -0.486614 20.2467
rtibia 33.5684
rfoot -4.41889 0.706136
rtoes 10.3157
lfemur 25.5296 -0.388639 -26.0668
ltibia 9.54166e-015
lfoot 10.5258 -2.18642
ltoes -1.54979
81
root 8.86954 15.3454 -19.2786 6.60383 2.69493 4.4765
lowerback 0.505128 -1.06878 -4.56145
upperback -3.4408 -1.51282 0.995876
thorax -3.6933 -0.59661 3.64188
lowerneck -10.6495 -0.577729 -3.69635
upperneck 8.97196 -0.0530805 -1.42009
head 4.43326 -0.240064 0.156558
rclavicle -1.0913e-014 1.59028e-015
rhumerus -92.102 -26.8304 -8.92373
rradius 13.6146
rwrist 44.1827
rhand -13.4261 -37.5578
rfingers 7.12502
rthumb 12.6825 -67.1527
lclavicle -1.0913e-014 1.59028e-015
lhumerus 1.02233 -3.97881 80.6356
lradius 48.6368
lwrist 31.1642
lhand -27.5386 -18.4402
lfingers 7.12502
lthumb -0.940316 11.5374
rfemur -44.464 -0.409175 20.6319
rtibia 35.0148
rfoot -4.80262 0.56216
rtoes 8.95002
lfemur 19.2885 -0.396232 -25.4493
ltibia 13.1142
lfoot 9.40815 -3.72675
ltoes -2.14374
82
root 8.87662 15.3556 -19.0387 6.54391 2.31563 4.19213
lowerback 0.527546 -0.913943 -4.06395
upperback -3.4074 -1.28649 1.21689
thorax -3.69612 -0.495867 3.58392
lowerneck -10.7408 -0.531705 -4.11828
upperneck 9.05532 0.0858471 -1.46983
head 4.47357 -0.191474 0.218513
rclavicle 1.27331e-014 -5.56597e-015
rhumerus -92.9143 -27.4039 -6.10244
rradius 13.2777
rwrist 47.182
rhand -13.8944 -36.8244
rfingers 7.12502
rthumb 12.2309 -66.4468
lclavicle 1.27331e-014 -5.56597e-015
lhumerus -0.341495 -3.78315 80.9921
lradius 49.7539
lwrist 31.5825
lhand -27.7531 -18.0181
lfingers 7.12502
lthumb -1.14741 11.9585
rfemur -44.3035 -0.42658 21.1082
rtibia 36.4993
rfoot -5.0423 1.1992
rtoes 5.82833
lfemur 16.5095 -0.0957416 -25.0969
ltibia 19.2206
lfoot 11.5099 -2.4962
ltoes -2.11496
83
root 8.88438 15.3674 -18.8091 6.54178 1.81321 3.75715
lowerback 0.640857 -0.62808 -3.4159
upperback -3.46263 -0.883018 1.48314
thorax -3.85744 -0.305548 3.48394
lowerneck -10.623 -0.550529 -4.42762
upperneck 9.10903 0.131533 -1.72291
head 4.47169 -0.195766 0.193511
rclavicle 1.45082e-014 -2.14687e-014
rhumerus -93.0129 -27.9186 -5.31784
rradius 13.2609
rwrist 48.1661
rhand -14.1626 -36.8401
rfingers 7.12502
rthumb 11.9723 -66.4777
lclavicle 1.45082e-014 -2.14687e-014
lhumerus -1.78926 -3.70792 81.6439
lradius 50.7731
lwrist 32.0372
lhand -27.572 -17.7552
lfingers 7.12502
lthumb -0.972501 12.2224
rfemur -44.2271 -0.45936 21.8453
rtibia 37.8833
rfoot -4.93369 2.20606
rtoes 4.68516
lfemur 14.1838 0.218503 -24.5884
ltibia 24.1368
lfoot 14.0397 -0.142042
ltoes 4.05304
84
root 8.89389 15.3819 -18.5768 6.35876 1.55207 3.36454
lowerback 0.928241 -0.436708 -2.80302
upperback -3.41721 -0.609725 1.6942
thorax -3.99805 -0.182915 3.35031
lowerneck -10.5397 -0.436448 -4.02736
upperneck 8.91735 0.300559 -2.50763
head 4.39954 -0.141259 -0.101028
rclavicle -3.44767e-015 0
rhumerus -92.4315 -28.5823 -6.30658
rradius 13.6357
rwrist 47.2985
rhand -13.8159 -37.1255
rfingers 7.12502
rthumb 12.3066 -66.7434
lclavicle -3.44767e-015 0
lhumerus -3.18261 -3.78657 82.1548
lradius 51.6976
lwrist 32.6888
lhand -27.4417 -18.1106
lfingers 7.12502
lthumb -0.846661 11.8674
rfemur -43.8178 -0.587122 22.4691
rtibia 38.9631
rfoot -4.86197 3.19503
rtoes 5.23036
lfemur 12.4034 0.273073 -24.1411
ltibia 28.5552
lfoot 15.8981 1.57743
ltoes 8.94698
85
root 8.8999 15.4041 -18.3351 6.12256 1.2793 2.8314
lowerback 1.11354 -0.286913 -2.10585
upperback -3.28186 -0.383771 1.90493
thorax -3.98086 -0.090929 3.16676
lowerneck -11.209 -0.421465 -4.66581
upperneck 9.5466 0.430545 -2.06318
head 4.70227 -0.0924941 0.146561
rclavicle -4.62097e-015 1.66979e-014
rhumerus -91.7853 -29.4082 -7.26946
rradius 13.911
rwrist 46.7723
rhand -13.6787 -36.9941
rfingers 7.12502
rthumb 12.4389 -66.604
lclavicle -4.62097e-015 1.66979e-014
lhumerus -4.48091 -3.85988 82.4689
lradius 52.4475
lwrist 33.2758
lhand -27.555 -18.0075
lfingers 7.12502
lthumb -0.956082 11.9701
rfemur -43.0926 -0.694003 23.2579
rtibia 39.7545
rfoot -5.14446 3.96839
rtoes 3.45569
lfemur 10.8701 0.369404 -23.556
ltibia 32.6214
lfoot 17.5115 2.67425
ltoes 10.1044
86
root 8.90163 15.442 -18.0947 6.03107 0.990847 2.23895
lowerback 1.14813 -0.126827 -1.41424
upperback -3.18703 -0.141917 2.09667
thorax -3.91845 0.00933069 2.96431
lowerneck -11.3504 -0.440255 -4.77721
upperneck 9.52482 0.440382 -2.13783
head 4.71937 -0.0969912 0.141813
rclavicle -5.70807e-015 7.95139e-016
rhumerus -90.8278 -30.3305 -8.62211
rradius 13.8738
rwrist 46.2071
rhand -13.9562 -37.3969
rfingers 7.12502
rthumb 12.1714 -67.0228
lclavicle -5.70807e-015 7.95139e-016
lhumerus -5.77565 -3.98004 82.7793
lradius 53.0057
lwrist 33.7114
lhand -28.0216 -17.619
lfingers 7.12502
lthumb -1.40674 12.3561
rfemur -42.272 -0.87889 24.1697
rtibia 40.2787
rfoot -5.65639 4.64993
rtoes 0.524536
lfemur 8.98138 0.504537 -22.8617
ltibia 36.4643
lfoot 19.3378 4.64511
ltoes 8.86932
87
root 8.90249 15.487 -17.8621 5.92751 0.87674 2.22654
lowerback 1.32573 -0.00406611 -1.31546
upperback -3.15926 0.0245523 2.09617
thorax -4.00039 0.0899949 2.90116
lowerneck -11.323 -0.448425 -4.6237
upperneck 9.33677 0.405207 -2.21315
head 4.65713 -0.108562 0.0913545
rclavicle -9.12856e-015 1.98785e-014
rhumerus -89.303 -31.1259 -11.1119
rradius 13.7639
rwrist 44.564
rhand -13.7688 -37.9542
rfingers 7.12502
rthumb 12.352 -67.5693
lclavicle -9.12856e-015 1.98785e-014
lhumerus -7.17656 -4.15382 83.21
lradius 53.44
lwrist 33.9411
lhand -28.2982 -17.4829
lfingers 7.12502
lthumb -1.67392 12.4903
rfemur -41.328 -1.22798 24.3793
rtibia 40.532
rfoot -6.1257 5.37479
rtoes 1.63962
lfemur 6.99614 0.449708 -22.815
ltibia 40.1039
lfoot 21.1647 6.99108
ltoes 4.14334
88
root 8.8999 15.5334 -17.6356 5.72672 0.812758 2.16729
lowerback 1.58384 0.0714014 -1.20923
upperback -3.04846 0.127311 2.09706
thorax -4.03735 0.137246 2.83734
lowerneck -11.4799 -0.427636 -4.42085
upperneck 9.16708 0.397772 -2.1604
head 4.62995 -0.0985784 0.0743936
rclavicle -8.85834e-015 -3.02153e-014
rhumerus -87.6471 -31.9018 -13.8506
rradius 13.7874
rwrist 43.0146
rhand -13.2302 -37.713
rfingers 7.12502
rthumb 12.8713 -67.2961
lclavicle -8.85834e-015 -3.02153e-014
lhumerus -8.42971 -4.23589 83.5844
lradius 53.6417
lwrist 34.0111
lhand -28.0022 -17.3521
lfingers 7.12502
lthumb -1.38806 12.6231
rfemur -40.2121 -1.25167 24.4721
rtibia 40.5885
rfoot -6.60212 5.80238
rtoes 4.45629
lfemur 5.20598 0.462633 -22.6794
ltibia 43.6072
lfoot 22.1173 9.83844
ltoes 2.04551
89
root 8.89192 15.5893 -17.4083 5.52293 0.659592 1.40452
lowerback 1.75828 0.170094 -0.495764
upperback -2.8396 0.288318 2.25406
thorax -3.92505 0.195456 2.58904
lowerneck -11.7842 -0.454203 -4.39148
upperneck 9.13198 0.334541 -1.82097
head 4.66817 -0.108127 0.169768
rclavicle 7.85821e-015 1.66979e-014
rhumerus -86.1203 -32.998 -16.1464
rradius 13.7649
rwrist 42.1394
rhand -13.3068 -37.4646
rfingers 7.12502
rthumb 12.7974 -67.0524
lclavicle 7.85821e-015 1.66979e-014
lhumerus -9.66725 -4.46916 83.8163
lradius 53.8858
lwrist 34.0604
lhand -27.936 -17.2387
lfingers 7.12502
lthumb -1.32412 12.7369
rfemur -38.9632 -0.729108 25.2268
rtibia 40.5033
rfoot -7.41294 5.67751
rtoes 4.64722
lfemur 3.46834 0.689712 -21.6925
ltibia 46.9242
lfoot 21.4758 12.7659
ltoes 4.58265
90
root 8.8809 15.6311 -17.1797 5.51018 0.525877 0.737219
lowerback 1.73389 0.315061 0.0721201
upperback -2.77419 0.506471 2.40086
thorax -3.85026 0.288883 2.41
lowerneck -11.5766 -0.629231 -4.69628
upperneck 8.99183 0.0752385 -1.31299
head 4.59269 -0.20968 0.357537
rclavicle 9.93923e-015 -3.97569e-015
rhumerus -84.0119 -33.9254 -19.402
rradius 13.7849
rwrist 40.0356
rhand -13.8968 -37.5874
rfingers 7.12502
rthumb 12.2286 -67.2099
lclavicle 9.93923e-015 -3.97569e-015
lhumerus -11.2153 -5.12412 84.1218
lradius 54.3098
lwrist 34.17
lhand -27.833 -16.617
lfingers 7.12502
lthumb -1.22465 13.3592
rfemur -37.9385 -0.958913 26.1426
rtibia 40.3559
rfoot -8.00957 6.15652
rtoes 4.22347
lfemur 1.56394 1.07023 -20.7759
ltibia 50.0969
lfoot 20.139 13.4692
ltoes 4.00955
91
root 8.87098 15.6655 -16.9556 5.57182 0.427496 0.376441
lowerback 1.63301 0.515848 0.415247
upperback -2.78207 0.788598 2.48643
thorax -3.80978 0.420808 2.29188
lowerneck -11.1555 -0.898806 -4.92857
upperneck 8.65596 -0.295251 -1.20789
head 4.42637 -0.384082 0.402102
rclavicle 2.12575e-014 -1.98785e-014
rhumerus -80.7581 -34.1616 -24.9621
rradius 14.3999
rwrist 35.8727
rhand -14.1597 -37.9113
rfingers 7.12502
rthumb 11.9751 -67.5487
lclavicle 2.12575e-014 -1.98785e-014
lhumerus -12.5631 -5.56687 84.7807
lradius 53.9736
lwrist 33.9513
lhand -27.3294 -16.3283
lfingers 7.12502
lthumb -0.738224 13.6501
rfemur -36.9674 -1.02765 26.6171
rtibia 40.1745
rfoot -8.51663 6.53121
rtoes 5.16306
lfemur -0.402411 1.60646 -20.1834
ltibia 53.1158
lfoot 18.4604 12.3964
ltoes 1.30298
